<svg data-v-423bf9ae="" xmlns="http://www.w3.org/2000/svg" viewBox="0 0 475 90" class="iconLeftSlogan"><!----><!----><!----><g data-v-423bf9ae="" id="6949e8c1-dd9e-4ea0-9041-9b95b7e51309" fill="white" transform="matrix(6.14754083944053,0,0,6.14754083944053,109.99999539584942,-18.442621564647276)"><path d="M6.13 5.81L6.13 5.81Q6.93 4.68 7.58 4.86L7.58 4.86L7.58 4.86Q8.22 5.03 8.71 6.23L8.71 6.23L8.71 6.23Q9.19 7.42 9.11 8.77L9.11 8.77L9.11 8.77Q9.03 10.12 8.00 11.02L8.00 11.02L8.00 11.02Q7.31 10.72 5.73 6.06L5.73 6.06L5.59 5.71L4.89 3.89L4.89 3.89Q4.70 3.26 4.25 4.00L4.25 4.00L2.69 5.86L1.97 3.89L1.97 3.89Q1.73 3.21 1.38 3.92L1.38 3.92L0 6.05L0.21 6.25L0.21 6.25Q0.79 5.35 1.07 6.06L1.07 6.06L3.25 11.89L3.25 11.89Q3.78 13.39 4.83 12.15L4.83 12.15L5.78 11.16L5.60 10.75L5.06 11.30L5.06 11.30Q4.51 11.41 2.82 6.25L2.82 6.25L2.82 6.25Q3.74 5.35 4.02 6.06L4.02 6.06L6.35 12.11L6.35 12.11Q6.93 13.30 7.78 12.15L7.78 12.15L7.78 12.15Q10.23 8.99 10.39 7.58L10.39 7.58L10.39 7.58Q10.54 6.18 9.72 4.81L9.72 4.81L9.72 4.81Q8.91 3.44 8.09 3.53L8.09 3.53L8.09 3.53Q7.27 3.63 5.97 5.51L5.97 5.51L6.13 5.81ZM15.49 12.71L16.78 11.42L16.61 11.22L16.21 11.58L16.21 11.58Q15.66 11.55 15.72 10.46L15.72 10.46L15.72 7.66L15.72 7.66Q15.70 6.64 14.90 6.51L14.90 6.51L13.61 7.78L13.75 7.92L14.14 7.58L14.14 7.58Q14.47 7.68 14.39 8.61L14.39 8.61L14.39 11.17L13.75 11.71L13.75 11.71Q12.68 11.63 12.69 10.19L12.69 10.19L12.70 7.68L12.70 7.68Q12.71 6.69 11.94 6.54L11.94 6.54L10.64 7.79L10.77 7.97L11.17 7.60L11.17 7.60Q11.45 7.64 11.40 8.61L11.40 8.61L11.40 10.66L11.40 10.66Q11.40 11.69 11.97 12.21L11.97 12.21L11.97 12.21Q12.54 12.73 13.20 12.76L13.20 12.76L14.45 11.49L14.45 11.49Q14.59 12.58 15.49 12.71L15.49 12.71ZM18.12 6.51L16.83 7.80L16.99 8.00L17.40 7.64L17.40 7.64Q17.94 7.67 17.89 8.76L17.89 8.76L17.89 11.57L17.89 11.57Q17.91 12.58 18.70 12.71L18.70 12.71L20.00 11.44L19.86 11.31L19.46 11.64L19.46 11.64Q19.19 11.53 19.22 10.62L19.22 10.62L19.22 8.05L19.72 7.63L19.72 7.63Q20.90 7.59 20.91 9.03L20.91 9.03L20.90 11.54L20.90 11.54Q20.90 12.54 21.67 12.69L21.67 12.69L22.97 11.43L22.83 11.25L22.44 11.62L22.44 11.62Q22.20 11.59 22.20 10.81L22.20 10.81L22.21 8.10L22.21 8.10Q22.19 7.18 21.62 6.79L21.62 6.79L21.62 6.79Q21.05 6.41 20.45 6.51L20.45 6.51L19.15 7.73L19.15 7.73Q19.01 6.64 18.12 6.51L18.12 6.51ZM26.41 5.07L26.41 5.07L26.41 6.54L24.99 6.54L24.99 6.54Q23.37 8.91 23.24 9.56L23.24 9.56L23.24 9.56Q23.12 10.20 23.31 10.75L23.31 10.75L23.31 10.75Q23.50 11.31 24.21 12.11L24.21 12.11L24.21 12.11Q24.92 12.91 25.28 12.61L25.28 12.61L26.44 11.57L26.44 11.57Q26.75 12.68 27.45 12.67L27.45 12.67L28.41 11.48L28.75 11.10L28.54 10.87L28.06 11.38L28.06 11.38Q27.69 11.27 27.69 9.72L27.69 9.72L27.69 5.13L27.69 5.13Q27.62 3.61 28.29 3.19L28.29 3.19L28.10 3.07L28.10 3.07Q26.52 3.72 26.41 5.07ZM25.88 7.98L26.44 7.23L26.44 11.16L26.44 11.16Q25.70 11.41 25.05 10.48L25.05 10.48L25.05 10.48Q24.40 9.56 24.34 8.93L24.34 8.93L24.34 8.93Q24.29 8.31 24.62 7.98L24.62 7.98L25.88 7.98ZM31.49 6.54L31.49 6.54Q30.86 6.79 30.22 7.53L30.22 7.53L30.22 7.53Q28.64 9.04 29.09 10.32L29.09 10.32L29.09 10.32Q29.55 11.59 30.31 12.30L30.31 12.30L30.31 12.30Q31.06 13.02 31.64 12.52L31.64 12.52L31.64 12.52Q32.53 11.89 33.50 10.62L33.50 10.62L33.33 10.47L33.33 10.47Q32.75 11.13 32.27 11.42L32.27 11.42L32.27 11.42Q31.62 11.56 30.96 10.55L30.96 10.55L30.96 10.55Q30.29 9.54 30.18 8.65L30.18 8.65L30.18 8.65Q30.08 7.77 30.64 7.63L30.64 7.63L30.64 7.63Q31.19 7.49 31.48 7.86L31.48 7.86L31.48 7.86Q31.76 8.24 31.64 8.61L31.64 8.61L31.64 8.61Q31.52 8.98 31.04 9.33L31.04 9.33L30.54 9.71L30.73 10.00L32.45 8.63L33.01 8.14L33.01 8.14Q33.13 7.21 32.62 6.84L32.62 6.84L32.62 6.84Q32.12 6.47 31.49 6.54L31.49 6.54ZM34.85 6.54L33.51 8.20L33.69 8.33L33.69 8.33Q34.13 7.75 34.39 7.88L34.39 7.88L34.39 7.88Q34.65 8.00 34.61 8.77L34.61 8.77L34.61 11.55L34.61 11.55Q34.75 12.53 35.46 12.68L35.46 12.68L36.80 11.37L36.70 11.23L36.70 11.23Q36.00 11.67 35.99 11.01L35.99 11.01L35.99 8.33L35.99 8.33Q36.04 7.54 36.39 7.51L36.39 7.51L36.39 7.51Q36.75 7.47 37.14 8.21L37.14 8.21L38.29 7.31L38.29 7.31Q37.85 6.63 37.34 6.51L37.34 6.51L37.34 6.51Q36.84 6.39 36.49 6.71L36.49 6.71L36.49 6.71Q36.13 7.03 35.90 7.55L35.90 7.55L35.90 7.55Q35.78 6.67 34.85 6.54L34.85 6.54ZM42.08 3.61L39.04 3.60L37.90 5.11L38.14 5.25L38.51 4.90L39.92 4.89L39.42 5.18L39.42 5.18Q39.53 11.31 39.21 11.60L39.21 11.60L38.51 12.52L38.62 12.68L42.29 12.69L42.29 12.69Q42.90 12.22 43.98 11.00L43.98 11.00L43.98 11.00Q45.21 9.95 45.09 8.96L45.09 8.96L45.09 8.96Q44.97 7.97 44.26 7.57L44.26 7.57L44.26 7.57Q43.55 7.17 42.63 7.25L42.63 7.25L42.63 7.25Q43.86 6.45 43.87 5.14L43.87 5.14L43.87 5.14Q43.87 3.84 42.08 3.61L42.08 3.61ZM40.73 4.79L40.73 4.79Q42.55 4.61 42.74 5.65L42.74 5.65L42.74 5.65Q42.92 6.69 42.18 7.16L42.18 7.16L40.74 7.14L40.73 4.79ZM42.27 8.52L42.27 8.52Q43.12 8.51 43.57 8.96L43.57 8.96L43.57 8.96Q44.02 9.41 43.79 10.22L43.79 10.22L43.79 10.22Q43.57 11.04 43.13 11.22L43.13 11.22L39.79 11.22L40.71 10.58L40.71 8.52L42.27 8.52ZM47.03 3.80L45.79 4.94L45.79 4.94Q46.53 5.07 46.57 6.04L46.57 6.04L47.85 5.02L47.85 5.02Q47.89 4.12 47.03 3.80L47.03 3.80ZM47.13 6.44L45.45 7.82L45.59 8.07L46.00 7.77L46.00 7.77Q46.36 7.77 46.28 8.80L46.28 8.80L46.28 11.58L46.28 11.58Q46.36 12.58 47.13 12.71L47.13 12.71L48.47 11.40L48.32 11.25L47.93 11.59L47.93 11.59Q47.56 11.57 47.61 10.53L47.61 10.53L47.60 7.64L47.60 7.64Q47.58 6.57 47.13 6.44L47.13 6.44ZM50.69 3.00L50.69 3.00Q48.89 4.17 48.98 6.06L48.98 6.06L48.98 11.42L48.98 11.42Q49.04 12.35 49.83 12.71L49.83 12.71L51.35 11.41L51.17 11.22L51.17 11.22Q50.16 12.15 50.39 9.77L50.39 9.77L50.39 9.77Q50.65 9.55 50.99 9.77L50.99 9.77L50.99 9.77Q51.32 9.99 52.01 11.36L52.01 11.36L52.01 11.36Q52.71 12.74 53.20 12.74L53.20 12.74L54.53 11.23L54.33 11.05L54.33 11.05Q53.74 11.89 53.12 10.46L53.12 10.46L53.12 10.46Q52.49 9.03 51.75 8.96L51.75 8.96L51.75 8.96Q52.17 8.73 52.78 8.11L52.78 8.11L52.78 8.11Q53.40 7.49 53.12 6.52L53.12 6.52L51.58 7.51L51.58 7.51Q51.87 8.37 51.42 8.69L51.42 8.69L51.42 8.69Q50.98 9.00 50.30 9.29L50.30 9.29L50.30 5.26L50.30 5.26Q50.31 3.53 50.89 3.12L50.89 3.12L50.69 3.00ZM57.32 6.54L57.32 6.54Q56.68 6.79 56.05 7.53L56.05 7.53L56.05 7.53Q54.46 9.04 54.92 10.32L54.92 10.32L54.92 10.32Q55.38 11.59 56.13 12.30L56.13 12.30L56.13 12.30Q56.89 13.02 57.47 12.52L57.47 12.52L57.47 12.52Q58.36 11.89 59.32 10.62L59.32 10.62L59.15 10.47L59.15 10.47Q58.58 11.13 58.10 11.42L58.10 11.42L58.10 11.42Q57.45 11.56 56.78 10.55L56.78 10.55L56.78 10.55Q56.12 9.54 56.01 8.65L56.01 8.65L56.01 8.65Q55.90 7.77 56.46 7.63L56.46 7.63L56.46 7.63Q57.02 7.49 57.30 7.86L57.30 7.86L57.30 7.86Q57.59 8.24 57.47 8.61L57.47 8.61L57.47 8.61Q57.35 8.98 56.86 9.33L56.86 9.33L56.36 9.71L56.56 10.00L58.28 8.63L58.84 8.14L58.84 8.14Q58.95 7.21 58.45 6.84L58.45 6.84L58.45 6.84Q57.94 6.47 57.32 6.54L57.32 6.54Z"></path></g><!----><g data-v-423bf9ae="" id="cb024982-d14a-4db4-99d6-f048dd12f5e9" transform="matrix(2.8125,0,0,2.8125,0,0)" stroke="none" fill="white"><path d="M9.663 12.988L12.675 16l-6.338 6.337 3.326 3.326L16 19.325l3.012 3.012-6.337 6.338L16 32l6.337-6.337 3.326-3.326L32 16l-3.325-3.325-6.338 6.337L19.325 16l6.338-6.337-3.326-3.326L16 12.675l-3.012-3.012 6.337-6.338L16 0 9.663 6.337 6.337 9.663 0 16l3.325 3.325z"></path></g><!----><g data-v-423bf9ae="" id="476558ac-c5a4-493a-b52f-de7a3d88162f" fill="white" transform="matrix(0.6250674025324557,0,0,0.6250674025324557,109.93749339168221,58.187303848390144)"><path d="M0.10 3.44C0.10 3.68 0.18 3.70 0.35 3.70L0.76 3.70C0.88 3.70 3.14 7.74 3.54 8.50C3.60 8.60 3.64 8.65 3.64 8.81C3.64 10.50 3.63 12.18 3.50 12.18L2.79 12.18C2.56 12.18 2.52 12.19 2.52 12.39C2.52 12.63 2.53 12.68 2.73 12.68C2.93 12.68 3.74 12.64 4.33 12.64C5.15 12.64 5.68 12.68 6.01 12.68C6.17 12.68 6.20 12.61 6.20 12.40C6.20 12.24 6.17 12.18 6.01 12.18L5.04 12.18C4.94 12.18 4.91 9.72 4.91 8.22C4.91 8.18 4.91 8.15 4.96 8.09C5.50 7.22 7.45 3.70 7.52 3.70L7.99 3.70C8.16 3.70 8.26 3.68 8.26 3.44C8.26 3.22 8.18 3.19 7.99 3.19C7.77 3.19 7.53 3.23 6.93 3.23C6.34 3.23 6.01 3.19 5.84 3.19C5.64 3.19 5.60 3.25 5.60 3.49C5.60 3.68 5.67 3.70 5.89 3.70L6.62 3.70C6.64 3.70 6.65 3.71 6.65 3.74C6.65 4.05 5.08 6.99 4.70 7.71C4.59 7.92 4.59 7.88 4.48 7.67C4.07 6.89 2.79 4.56 2.49 3.85C2.44 3.71 2.42 3.70 2.60 3.70L3.43 3.70C3.65 3.70 3.68 3.68 3.68 3.49C3.68 3.25 3.64 3.19 3.49 3.19C3.25 3.19 2.63 3.23 1.83 3.23C1.02 3.23 0.53 3.19 0.35 3.19C0.17 3.19 0.10 3.21 0.10 3.44ZM15.39 8.15C15.39 11.17 17.72 12.80 19.98 12.80C22.76 12.80 24.74 10.89 24.74 8.06C24.74 5.33 22.99 3.11 20.19 3.11C17.58 3.11 15.39 5.10 15.39 8.15ZM16.79 7.77C16.79 5.64 18.07 3.58 20.05 3.58C22.29 3.58 23.37 5.81 23.37 7.94C23.37 10.08 22.26 12.32 19.99 12.32C18.00 12.32 16.79 10.28 16.79 7.77ZM32.84 3.51C32.84 3.75 32.93 3.77 33.10 3.77L33.63 3.77C33.68 3.77 33.68 4.12 33.68 4.55C33.68 5.66 33.67 8.96 33.67 9.42C33.67 11.13 33.92 12.80 36.78 12.80C37.86 12.80 39.02 12.38 39.68 12.00C39.93 11.86 40.22 11.72 40.31 11.72C40.57 11.72 40.84 12.74 41.17 12.74C41.50 12.74 41.51 12.35 41.51 12.25C41.51 11.96 41.57 10.08 41.61 8.16C41.66 6.12 41.65 3.77 41.76 3.77L42.08 3.77C42.31 3.77 42.38 3.75 42.38 3.56C42.38 3.32 42.34 3.26 42.14 3.26C42 3.26 41.47 3.30 41.05 3.30C40.63 3.30 39.83 3.26 39.61 3.26C39.42 3.26 39.33 3.28 39.33 3.51C39.33 3.75 39.44 3.77 39.61 3.77L40.31 3.77C40.38 3.77 40.39 4.30 40.39 4.87L40.39 9.14C40.39 11.19 40.39 11.12 40.05 11.34C39.66 11.61 38.85 12.08 37.67 12.08C35.70 12.08 34.90 11.17 34.90 9.41C34.90 8.82 34.97 3.77 35.08 3.77L35.99 3.77C36.22 3.77 36.26 3.75 36.26 3.56C36.26 3.32 36.25 3.26 36.05 3.26C35.73 3.26 34.85 3.30 34.43 3.30C34.01 3.30 33.32 3.26 33.10 3.26C32.91 3.26 32.84 3.28 32.84 3.51ZM50.41 3.51C50.41 3.72 50.48 3.79 50.68 3.79L51.49 3.77C51.59 3.77 51.63 6.61 51.63 8.55L51.63 10.42C51.63 11.30 51.62 12.18 51.58 12.18L50.97 12.18C50.75 12.18 50.68 12.19 50.68 12.39C50.68 12.63 50.72 12.68 50.92 12.68C51.04 12.68 51.87 12.64 52.29 12.64C52.71 12.64 53.48 12.68 53.80 12.68C53.97 12.68 54.00 12.61 54.00 12.40C54.00 12.24 53.97 12.18 53.80 12.18L52.99 12.18C52.92 12.18 52.84 9.18 52.84 8.37C52.84 8.30 52.84 8.26 52.95 8.26C53.34 8.26 53.94 8.27 54.24 8.27C56.48 8.32 56.62 10.00 56.62 11.68L56.62 12.49C56.62 12.61 56.67 12.64 56.77 12.64C56.77 12.64 58.21 12.68 58.69 12.68C58.86 12.68 58.91 12.64 58.91 12.53C58.91 12.24 58.86 12.18 58.70 12.18L58.06 12.18C57.96 12.18 57.93 12.14 57.90 11.31C57.82 8.99 56.45 8.34 55.54 8.05C55.40 8.01 55.43 8.01 55.54 7.95C56.13 7.69 57.44 6.94 57.44 5.63C57.44 3.63 55.75 3.21 54.35 3.21C54.03 3.21 52.74 3.29 52.32 3.29C51.90 3.29 50.92 3.26 50.69 3.26C50.51 3.26 50.41 3.28 50.41 3.51ZM52.84 7.80L52.84 4.40C52.84 4.05 52.86 3.68 52.91 3.68C53.12 3.65 53.40 3.65 53.62 3.65C54.92 3.65 56.17 4.47 56.17 5.82C56.17 6.99 55.62 7.57 54.96 7.88C54.92 7.90 54.88 7.90 54.81 7.90C54.33 7.88 53.62 7.88 53.02 7.87C52.85 7.87 52.84 7.85 52.84 7.80ZM76.19 12.39C76.19 12.63 76.22 12.68 76.41 12.68C76.73 12.68 77.70 12.64 78.12 12.64C78.54 12.64 82.89 12.68 83.22 12.68C83.48 12.68 83.55 12.66 83.57 12.49C83.62 12.08 83.86 10.72 83.86 10.60C83.86 10.47 83.71 10.44 83.54 10.43C83.44 10.42 83.36 10.46 83.34 10.56L83.17 11.76C83.13 12.05 83.12 12.03 82.89 12.04C82.74 12.05 80.23 12.12 78.81 12.12C78.76 12.12 78.72 11.38 78.72 10.54L78.72 6.66C78.72 5.40 78.74 3.70 78.83 3.70L79.81 3.70C80.05 3.70 80.08 3.63 80.08 3.44C80.08 3.23 80.07 3.19 79.83 3.19C79.51 3.19 78.57 3.23 78.15 3.23C77.73 3.23 76.79 3.19 76.57 3.19C76.34 3.19 76.29 3.22 76.29 3.44C76.29 3.65 76.33 3.70 76.52 3.70L77.35 3.70C77.39 3.70 77.42 4.23 77.42 4.90L77.42 8.13C77.42 10.07 77.39 12.18 77.31 12.18L76.47 12.18C76.24 12.18 76.19 12.21 76.19 12.39ZM91.41 8.15C91.41 11.17 93.74 12.80 96.00 12.80C98.78 12.80 100.76 10.89 100.76 8.06C100.76 5.33 99.01 3.11 96.21 3.11C93.60 3.11 91.41 5.10 91.41 8.15ZM92.81 7.77C92.81 5.64 94.09 3.58 96.07 3.58C98.31 3.58 99.39 5.81 99.39 7.94C99.39 10.08 98.28 12.32 96.01 12.32C94.02 12.32 92.81 10.28 92.81 7.77ZM108.93 7.91C108.93 11.31 111.30 12.87 113.89 12.87C115.67 12.87 117.45 11.90 117.49 11.59C117.66 10.29 117.71 9.70 117.71 9.66C117.71 9.56 117.67 9.52 117.50 9.51C117.45 9.51 117.39 9.49 117.35 9.49C117.24 9.49 117.18 9.53 117.15 9.70L116.97 11.33C116.96 11.45 115.85 12.24 114.28 12.24C112.15 12.24 110.45 10.29 110.45 7.94C110.45 5.42 111.87 3.54 113.88 3.54C115.72 3.54 117.07 5.01 117.07 5.17C117.07 5.29 117.01 6.40 117.01 6.45C117.01 6.59 117.05 6.64 117.32 6.64C117.52 6.64 117.59 6.62 117.59 6.44C117.59 5.73 117.64 3.92 117.64 3.67C117.64 3.47 117.53 3.44 117.32 3.44C117.10 3.44 117.07 3.50 117.07 3.67L117.07 4.05C117.07 4.16 117.03 4.16 116.90 4.06C116.62 3.86 115.64 3.04 113.97 3.04C111.13 3.04 108.93 4.96 108.93 7.91ZM125.96 12.39C125.96 12.63 125.96 12.68 126.15 12.68C126.32 12.68 126.64 12.64 127.22 12.64C127.83 12.64 128.38 12.68 128.53 12.68C128.70 12.68 128.70 12.61 128.70 12.40C128.70 12.24 128.70 12.18 128.53 12.18L127.46 12.18C127.46 12.18 127.44 12.18 127.44 12.17C127.46 11.87 128.23 9.90 128.58 9.02C128.65 8.83 128.66 8.79 128.87 8.79L131.70 8.79C131.84 8.79 131.84 8.81 131.91 9.03C132.17 9.77 132.89 11.89 132.89 12.17C132.89 12.18 132.87 12.18 132.87 12.18L132.10 12.18C131.88 12.18 131.87 12.19 131.87 12.39C131.87 12.63 131.88 12.68 132.05 12.68C132.37 12.68 133.24 12.64 133.66 12.64C134.08 12.64 134.75 12.68 134.96 12.68C135.10 12.68 135.11 12.61 135.11 12.40C135.11 12.24 135.10 12.18 134.96 12.18L134.47 12.18C134.37 12.18 133.35 9.34 132.79 7.78L131.11 3.07C131.10 3.00 131.03 2.94 130.94 2.94C130.82 2.94 130.72 3.16 130.63 3.35C130.48 3.71 130.24 3.84 130.13 4.13L128.65 7.57C128.46 8.01 126.76 12.18 126.63 12.18L126.21 12.18C125.99 12.18 125.96 12.19 125.96 12.39ZM128.86 8.33C128.86 8.30 128.88 8.23 128.93 8.13L130.30 4.77C130.34 4.66 130.37 4.61 130.40 4.61C130.41 4.61 130.42 4.63 130.47 4.77L131.63 8.18C131.66 8.25 131.67 8.29 131.67 8.32C131.67 8.36 131.64 8.37 131.54 8.37L129.04 8.37C128.86 8.37 128.86 8.34 128.86 8.33ZM142.87 12.39C142.87 12.63 142.90 12.68 143.09 12.68C143.42 12.68 144.38 12.64 144.80 12.64C145.22 12.64 149.58 12.68 149.90 12.68C150.16 12.68 150.23 12.66 150.25 12.49C150.30 12.08 150.54 10.72 150.54 10.60C150.54 10.47 150.39 10.44 150.22 10.43C150.12 10.42 150.04 10.46 150.02 10.56L149.86 11.76C149.81 12.05 149.80 12.03 149.58 12.04C149.42 12.05 146.92 12.12 145.49 12.12C145.45 12.12 145.40 11.38 145.40 10.54L145.40 6.66C145.40 5.40 145.42 3.70 145.52 3.70L146.50 3.70C146.73 3.70 146.76 3.63 146.76 3.44C146.76 3.23 146.75 3.19 146.51 3.19C146.19 3.19 145.25 3.23 144.83 3.23C144.41 3.23 143.47 3.19 143.25 3.19C143.02 3.19 142.97 3.22 142.97 3.44C142.97 3.65 143.01 3.70 143.21 3.70L144.03 3.70C144.07 3.70 144.10 4.23 144.10 4.90L144.10 8.13C144.10 10.07 144.07 12.18 143.99 12.18L143.15 12.18C142.93 12.18 142.87 12.21 142.87 12.39ZM167.89 12.39C167.89 12.63 167.92 12.68 168.11 12.68C168.35 12.68 168.85 12.64 169.27 12.64C169.69 12.64 170.18 12.68 170.51 12.68C170.67 12.68 170.70 12.61 170.70 12.40C170.70 12.24 170.67 12.18 170.51 12.18L169.54 12.18C169.48 12.18 169.47 11.54 169.47 10.79C169.47 8.96 169.51 6.13 169.58 4.28C169.61 3.88 169.64 3.91 169.78 4.27L173.04 12.32C173.14 12.54 173.21 12.74 173.32 12.74C173.42 12.74 173.49 12.63 173.57 12.45C173.91 11.79 174.09 11.75 174.36 11.09L176.95 4.47C177.07 4.16 177.11 4.02 177.13 4.47C177.16 5.66 177.20 8.47 177.20 9.74C177.20 10.99 177.16 12.18 177.10 12.18L176.47 12.18C176.25 12.18 176.18 12.19 176.18 12.39C176.18 12.63 176.20 12.68 176.40 12.68C176.60 12.68 177.30 12.64 177.90 12.64C178.32 12.64 179.07 12.68 179.40 12.68C179.56 12.68 179.59 12.61 179.59 12.40C179.59 12.22 179.54 12.18 179.37 12.18L178.64 12.18C178.53 12.18 178.43 8.44 178.43 6.03L178.43 4.77C178.43 4.17 178.46 3.77 178.50 3.70L179.16 3.70C179.38 3.70 179.42 3.68 179.42 3.49C179.42 3.25 179.41 3.19 179.21 3.19C178.89 3.19 178.21 3.23 177.79 3.23L177.11 3.23C176.89 3.23 176.86 3.29 176.75 3.58L174.01 10.72C173.92 10.95 173.89 11.02 173.78 10.74L170.84 3.40C170.77 3.22 170.72 3.19 170.58 3.19C170.49 3.19 170.00 3.23 169.69 3.23C169.19 3.23 168.34 3.19 168.14 3.19C168.00 3.19 168.00 3.26 168.00 3.47C168.00 3.64 168.00 3.70 168.14 3.70L168.84 3.70C169.11 3.70 169.11 3.72 169.11 3.84C169.11 4.82 168.90 9.94 168.85 10.79C168.81 11.55 168.81 12.18 168.76 12.18L168.18 12.18C167.96 12.18 167.89 12.19 167.89 12.39ZM187.56 8.15C187.56 11.17 189.90 12.80 192.15 12.80C194.94 12.80 196.91 10.89 196.91 8.06C196.91 5.33 195.16 3.11 192.36 3.11C189.76 3.11 187.56 5.10 187.56 8.15ZM188.96 7.77C188.96 5.64 190.25 3.58 192.22 3.58C194.46 3.58 195.54 5.81 195.54 7.94C195.54 10.08 194.43 12.32 192.16 12.32C190.18 12.32 188.96 10.28 188.96 7.77ZM205.02 3.51C205.02 3.75 205.10 3.79 205.27 3.79L206.12 3.77C206.18 3.77 206.23 5.52 206.23 7.11L206.23 11.63C206.23 11.93 206.22 12.18 206.19 12.18L205.46 12.18C205.24 12.18 205.17 12.19 205.17 12.39C205.17 12.63 205.20 12.68 205.39 12.68C205.52 12.68 206.47 12.64 206.89 12.64C207.07 12.64 207.59 12.67 208.24 12.67C209.79 12.67 212.20 12.43 212.20 10.23C212.20 8.27 210.38 7.94 209.69 7.84C209.61 7.83 209.59 7.83 209.59 7.81C209.59 7.80 209.64 7.78 209.71 7.76C210.35 7.52 211.79 6.90 211.79 5.54C211.79 3.81 210.32 3.25 208.64 3.25C208.07 3.25 207.47 3.29 206.92 3.29C206.50 3.29 205.49 3.26 205.27 3.26C205.09 3.26 205.02 3.28 205.02 3.51ZM207.47 8.19C207.47 8.12 207.47 8.08 207.58 8.08L208.05 8.08C208.67 8.08 209.31 8.09 209.69 8.22C210.56 8.51 210.88 9.16 210.88 10.14C210.88 11.17 210.42 12.18 208.40 12.18L207.56 12.18C207.48 12.18 207.47 9.02 207.47 8.19ZM207.47 7.59L207.47 6.92C207.47 5.87 207.48 3.71 207.52 3.68C207.58 3.65 207.89 3.63 208.10 3.63C209.51 3.63 210.53 4.41 210.53 5.77C210.53 6.92 209.80 7.46 209.17 7.66C209.09 7.69 208.99 7.70 208.91 7.70C208.82 7.70 208.68 7.69 208.45 7.69L207.65 7.69C207.47 7.69 207.47 7.67 207.47 7.59ZM220.16 12.39C220.16 12.63 220.21 12.68 220.40 12.68C220.72 12.68 221.48 12.64 222.19 12.64C222.85 12.64 223.65 12.68 223.87 12.68C224.04 12.68 224.07 12.61 224.07 12.40C224.07 12.24 224.04 12.18 223.87 12.18L222.91 12.18C222.81 12.18 222.78 9.55 222.78 7.76L222.78 5.87C222.78 5.14 222.81 3.70 222.91 3.70L223.82 3.70C224.04 3.70 224.07 3.68 224.07 3.49C224.07 3.25 224.04 3.19 223.87 3.19C223.55 3.19 222.88 3.23 222.22 3.23C221.41 3.23 220.70 3.19 220.47 3.19C220.29 3.19 220.22 3.21 220.22 3.44C220.22 3.68 220.30 3.70 220.47 3.70L221.40 3.70C221.44 3.70 221.51 4.79 221.51 5.71L221.51 7.08C221.51 8.92 221.49 12.18 221.38 12.18L220.46 12.18C220.23 12.18 220.16 12.19 220.16 12.39ZM231.97 12.39C231.97 12.63 231.99 12.68 232.19 12.68C232.51 12.68 233.48 12.64 233.90 12.64C234.32 12.64 238.67 12.68 238.99 12.68C239.26 12.68 239.33 12.66 239.34 12.49C239.40 12.08 239.64 10.72 239.64 10.60C239.64 10.47 239.48 10.44 239.32 10.43C239.22 10.42 239.13 10.46 239.12 10.56L238.95 11.76C238.91 12.05 238.90 12.03 238.67 12.04C238.52 12.05 236.01 12.12 234.58 12.12C234.54 12.12 234.50 11.38 234.50 10.54L234.50 6.66C234.50 5.40 234.51 3.70 234.61 3.70L235.59 3.70C235.83 3.70 235.86 3.63 235.86 3.44C235.86 3.23 235.84 3.19 235.61 3.19C235.28 3.19 234.35 3.23 233.93 3.23C233.51 3.23 232.57 3.19 232.34 3.19C232.12 3.19 232.06 3.22 232.06 3.44C232.06 3.65 232.11 3.70 232.30 3.70L233.13 3.70C233.17 3.70 233.20 4.23 233.20 4.90L233.20 8.13C233.20 10.07 233.17 12.18 233.09 12.18L232.25 12.18C232.02 12.18 231.97 12.21 231.97 12.39ZM247.25 12.39C247.25 12.63 247.28 12.68 247.48 12.68C247.80 12.68 248.77 12.64 249.19 12.64C249.61 12.64 254.11 12.68 254.44 12.68C254.56 12.68 254.72 12.66 254.72 12.49C254.72 12.07 254.76 11.23 254.76 10.53C254.76 10.39 254.60 10.39 254.48 10.39C254.37 10.39 254.24 10.39 254.24 10.51C254.23 11.06 254.23 11.41 254.20 11.76C254.17 12.01 254.17 12.04 254.07 12.04C253.92 12.04 251.29 12.08 249.79 12.08C249.72 12.08 249.68 10.11 249.63 8.26C249.63 8.06 249.68 8.09 249.82 8.09L252.10 8.09C252.80 8.09 252.83 8.20 252.83 8.30L252.83 9.00C252.83 9.14 253.01 9.14 253.12 9.14C253.22 9.14 253.34 9.13 253.34 9.02C253.34 8.83 253.32 8.33 253.32 7.83C253.32 7.32 253.34 6.83 253.34 6.71C253.34 6.59 253.20 6.58 253.11 6.58C252.99 6.58 252.83 6.59 252.83 6.72L252.83 7.45C252.83 7.62 252.38 7.63 252.10 7.63L249.76 7.63C249.65 7.63 249.63 7.63 249.63 7.45C249.62 6.75 249.61 6.06 249.61 5.46C249.61 5.12 249.61 3.71 249.69 3.71C250.92 3.71 253.43 3.75 253.43 3.81C253.43 3.99 253.39 4.83 253.39 4.89C253.39 5.04 253.46 5.10 253.64 5.10C253.83 5.10 253.90 5.08 253.90 4.94C253.90 3.85 253.96 3.36 253.96 3.09C253.96 2.91 253.88 2.90 253.68 2.90C253.48 2.90 253.48 2.95 253.46 3.11C253.44 3.25 253.51 3.25 252.60 3.25C251.99 3.25 249.84 3.29 249.07 3.29C248.58 3.29 247.65 3.25 247.55 3.25C247.42 3.25 247.37 3.30 247.37 3.49C247.37 3.72 247.44 3.74 247.60 3.74L248.26 3.74C248.32 3.74 248.39 4.79 248.39 5.71C248.39 5.80 248.44 8.27 248.44 9.83L248.44 11.17C248.44 11.84 248.42 12.18 248.39 12.18L247.53 12.18C247.31 12.18 247.25 12.21 247.25 12.39ZM272.52 3.51C272.52 3.75 272.61 3.79 272.78 3.79L273.63 3.77C273.69 3.77 273.74 5.52 273.74 7.11L273.74 11.63C273.74 11.93 273.73 12.18 273.70 12.18L272.97 12.18C272.75 12.18 272.68 12.19 272.68 12.39C272.68 12.63 272.71 12.68 272.90 12.68C273.03 12.68 273.98 12.64 274.40 12.64C274.58 12.64 275.10 12.67 275.74 12.67C277.30 12.67 279.71 12.43 279.71 10.23C279.71 8.27 277.89 7.94 277.20 7.84C277.12 7.83 277.10 7.83 277.10 7.81C277.10 7.80 277.14 7.78 277.21 7.76C277.86 7.52 279.30 6.90 279.30 5.54C279.30 3.81 277.83 3.25 276.15 3.25C275.58 3.25 274.97 3.29 274.43 3.29C274.01 3.29 273.00 3.26 272.78 3.26C272.59 3.26 272.52 3.28 272.52 3.51ZM274.97 8.19C274.97 8.12 274.97 8.08 275.09 8.08L275.56 8.08C276.18 8.08 276.82 8.09 277.20 8.22C278.07 8.51 278.39 9.16 278.39 10.14C278.39 11.17 277.93 12.18 275.91 12.18L275.07 12.18C274.99 12.18 274.97 9.02 274.97 8.19ZM274.97 7.59L274.97 6.92C274.97 5.87 274.99 3.71 275.03 3.68C275.09 3.65 275.39 3.63 275.60 3.63C277.02 3.63 278.04 4.41 278.04 5.77C278.04 6.92 277.31 7.46 276.68 7.66C276.60 7.69 276.50 7.70 276.42 7.70C276.33 7.70 276.19 7.69 275.95 7.69L275.16 7.69C274.97 7.69 274.97 7.67 274.97 7.59ZM287.67 12.39C287.67 12.63 287.71 12.68 287.91 12.68C288.23 12.68 288.99 12.64 289.70 12.64C290.36 12.64 291.16 12.68 291.38 12.68C291.55 12.68 291.58 12.61 291.58 12.40C291.58 12.24 291.55 12.18 291.38 12.18L290.42 12.18C290.32 12.18 290.29 9.55 290.29 7.76L290.29 5.87C290.29 5.14 290.32 3.70 290.42 3.70L291.33 3.70C291.55 3.70 291.58 3.68 291.58 3.49C291.58 3.25 291.55 3.19 291.38 3.19C291.06 3.19 290.39 3.23 289.73 3.23C288.92 3.23 288.20 3.19 287.98 3.19C287.80 3.19 287.73 3.21 287.73 3.44C287.73 3.68 287.81 3.70 287.98 3.70L288.90 3.70C288.95 3.70 289.02 4.79 289.02 5.71L289.02 7.08C289.02 8.92 289.00 12.18 288.89 12.18L287.97 12.18C287.74 12.18 287.67 12.19 287.67 12.39ZM299.47 12.39C299.47 12.63 299.49 12.68 299.68 12.68C300.01 12.68 300.90 12.64 301.32 12.64C301.74 12.64 302.69 12.68 303.02 12.68C303.18 12.68 303.20 12.61 303.20 12.40C303.20 12.24 303.17 12.18 303.00 12.18L301.99 12.18C301.90 12.18 301.87 10.12 301.87 8.46C301.87 8.30 301.87 8.30 302.04 8.30L302.30 8.30C302.51 8.30 302.51 8.32 302.58 8.40L305.62 12.00C305.72 12.11 305.79 12.18 305.58 12.18L305.12 12.18C304.93 12.18 304.86 12.19 304.86 12.39C304.86 12.63 304.86 12.68 305.06 12.68C305.38 12.68 306.08 12.64 306.50 12.64C306.92 12.64 307.61 12.68 307.93 12.68C308.10 12.68 308.10 12.61 308.10 12.40C308.10 12.24 308.10 12.18 307.93 12.18L307.71 12.18C307.52 12.18 307.43 12.10 307.30 11.96L303.53 7.62C303.39 7.45 303.37 7.50 303.49 7.36C303.94 6.83 306.47 3.77 306.54 3.77L307.22 3.77C307.44 3.77 307.47 3.75 307.47 3.56C307.47 3.32 307.47 3.26 307.27 3.26C307.08 3.26 306.63 3.30 306.11 3.30C305.58 3.30 305.10 3.26 304.88 3.26C304.70 3.26 304.60 3.28 304.60 3.51C304.60 3.75 304.71 3.77 304.88 3.77L305.44 3.77C305.61 3.77 305.61 3.84 305.49 3.99C304.96 4.66 302.61 7.92 302.32 7.92L302.01 7.92C301.87 7.92 301.87 7.88 301.87 7.69L301.87 5.94C301.87 5.21 301.94 3.77 302.04 3.77L302.81 3.77C303.03 3.77 303.07 3.75 303.07 3.56C303.07 3.32 303.06 3.26 302.86 3.26C302.54 3.26 301.77 3.30 301.35 3.30C300.76 3.30 300.10 3.26 299.88 3.26C299.70 3.26 299.60 3.28 299.60 3.51C299.60 3.75 299.71 3.77 299.88 3.77L300.52 3.77C300.58 3.77 300.61 4.86 300.61 5.78L300.61 9.84C300.61 11.00 300.59 12.18 300.51 12.18L299.77 12.18C299.54 12.18 299.47 12.19 299.47 12.39ZM315.57 12.39C315.57 12.63 315.60 12.68 315.80 12.68C316.12 12.68 317.09 12.64 317.51 12.64C317.93 12.64 322.43 12.68 322.76 12.68C322.88 12.68 323.04 12.66 323.04 12.49C323.04 12.07 323.08 11.23 323.08 10.53C323.08 10.39 322.92 10.39 322.80 10.39C322.69 10.39 322.56 10.39 322.56 10.51C322.55 11.06 322.55 11.41 322.52 11.76C322.49 12.01 322.49 12.04 322.39 12.04C322.24 12.04 319.61 12.08 318.11 12.08C318.04 12.08 318.00 10.11 317.95 8.26C317.95 8.06 318.00 8.09 318.14 8.09L320.42 8.09C321.12 8.09 321.15 8.20 321.15 8.30L321.15 9.00C321.15 9.14 321.33 9.14 321.44 9.14C321.54 9.14 321.66 9.13 321.66 9.02C321.66 8.83 321.64 8.33 321.64 7.83C321.64 7.32 321.66 6.83 321.66 6.71C321.66 6.59 321.52 6.58 321.43 6.58C321.31 6.58 321.15 6.59 321.15 6.72L321.15 7.45C321.15 7.62 320.70 7.63 320.42 7.63L318.08 7.63C317.97 7.63 317.95 7.63 317.95 7.45C317.94 6.75 317.93 6.06 317.93 5.46C317.93 5.12 317.93 3.71 318.01 3.71C319.24 3.71 321.75 3.75 321.75 3.81C321.75 3.99 321.71 4.83 321.71 4.89C321.71 5.04 321.78 5.10 321.96 5.10C322.15 5.10 322.22 5.08 322.22 4.94C322.22 3.85 322.28 3.36 322.28 3.09C322.28 2.91 322.20 2.90 322.00 2.90C321.80 2.90 321.80 2.95 321.78 3.11C321.76 3.25 321.83 3.25 320.92 3.25C320.31 3.25 318.16 3.29 317.39 3.29C316.90 3.29 315.97 3.25 315.87 3.25C315.74 3.25 315.69 3.30 315.69 3.49C315.69 3.72 315.76 3.74 315.92 3.74L316.58 3.74C316.64 3.74 316.71 4.79 316.71 5.71C316.71 5.80 316.76 8.27 316.76 9.83L316.76 11.17C316.76 11.84 316.74 12.18 316.71 12.18L315.85 12.18C315.63 12.18 315.57 12.21 315.57 12.39ZM340.77 12.39C340.77 12.63 340.80 12.68 341.00 12.68C341.24 12.68 341.74 12.64 342.16 12.64C342.58 12.64 343.07 12.68 343.39 12.68C343.56 12.68 343.59 12.61 343.59 12.40C343.59 12.24 343.56 12.18 343.39 12.18L342.43 12.18C342.37 12.18 342.36 11.54 342.36 10.79C342.36 8.96 342.40 6.13 342.47 4.28C342.50 3.88 342.52 3.91 342.66 4.27L345.93 12.32C346.02 12.54 346.09 12.74 346.21 12.74C346.30 12.74 346.37 12.63 346.46 12.45C346.79 11.79 346.98 11.75 347.24 11.09L349.83 4.47C349.96 4.16 350.00 4.02 350.01 4.47C350.04 5.66 350.08 8.47 350.08 9.74C350.08 10.99 350.04 12.18 349.99 12.18L349.36 12.18C349.13 12.18 349.06 12.19 349.06 12.39C349.06 12.63 349.09 12.68 349.29 12.68C349.48 12.68 350.18 12.64 350.78 12.64C351.20 12.64 351.96 12.68 352.28 12.68C352.45 12.68 352.48 12.61 352.48 12.40C352.48 12.22 352.42 12.18 352.25 12.18L351.53 12.18C351.41 12.18 351.32 8.44 351.32 6.03L351.32 4.77C351.32 4.17 351.34 3.77 351.39 3.70L352.04 3.70C352.27 3.70 352.31 3.68 352.31 3.49C352.31 3.25 352.30 3.19 352.10 3.19C351.78 3.19 351.09 3.23 350.67 3.23L350.00 3.23C349.78 3.23 349.75 3.29 349.64 3.58L346.89 10.72C346.81 10.95 346.78 11.02 346.67 10.74L343.73 3.40C343.66 3.22 343.60 3.19 343.46 3.19C343.38 3.19 342.89 3.23 342.58 3.23C342.08 3.23 341.22 3.19 341.03 3.19C340.89 3.19 340.89 3.26 340.89 3.47C340.89 3.64 340.89 3.70 341.03 3.70L341.73 3.70C341.99 3.70 341.99 3.72 341.99 3.84C341.99 4.82 341.78 9.94 341.74 10.79C341.70 11.55 341.70 12.18 341.64 12.18L341.07 12.18C340.84 12.18 340.77 12.19 340.77 12.39ZM360.37 12.39C360.37 12.63 360.40 12.68 360.60 12.68C360.92 12.68 361.89 12.64 362.31 12.64C362.73 12.64 367.23 12.68 367.56 12.68C367.68 12.68 367.84 12.66 367.84 12.49C367.84 12.07 367.88 11.23 367.88 10.53C367.88 10.39 367.72 10.39 367.60 10.39C367.49 10.39 367.36 10.39 367.36 10.51C367.35 11.06 367.35 11.41 367.32 11.76C367.29 12.01 367.29 12.04 367.19 12.04C367.04 12.04 364.41 12.08 362.91 12.08C362.84 12.08 362.80 10.11 362.75 8.26C362.75 8.06 362.80 8.09 362.94 8.09L365.22 8.09C365.92 8.09 365.95 8.20 365.95 8.30L365.95 9.00C365.95 9.14 366.13 9.14 366.24 9.14C366.34 9.14 366.46 9.13 366.46 9.02C366.46 8.83 366.44 8.33 366.44 7.83C366.44 7.32 366.46 6.83 366.46 6.71C366.46 6.59 366.32 6.58 366.23 6.58C366.11 6.58 365.95 6.59 365.95 6.72L365.95 7.45C365.95 7.62 365.50 7.63 365.22 7.63L362.88 7.63C362.77 7.63 362.75 7.63 362.75 7.45C362.74 6.75 362.73 6.06 362.73 5.46C362.73 5.12 362.73 3.71 362.81 3.71C364.04 3.71 366.55 3.75 366.55 3.81C366.55 3.99 366.51 4.83 366.51 4.89C366.51 5.04 366.58 5.10 366.76 5.10C366.95 5.10 367.02 5.08 367.02 4.94C367.02 3.85 367.08 3.36 367.08 3.09C367.08 2.91 367.00 2.90 366.80 2.90C366.60 2.90 366.60 2.95 366.58 3.11C366.56 3.25 366.63 3.25 365.72 3.25C365.11 3.25 362.96 3.29 362.19 3.29C361.70 3.29 360.77 3.25 360.67 3.25C360.54 3.25 360.49 3.30 360.49 3.49C360.49 3.72 360.56 3.74 360.72 3.74L361.38 3.74C361.44 3.74 361.51 4.79 361.51 5.71C361.51 5.80 361.56 8.27 361.56 9.83L361.56 11.17C361.56 11.84 361.54 12.18 361.51 12.18L360.65 12.18C360.43 12.18 360.37 12.21 360.37 12.39ZM375.91 7.91C375.91 11.31 378.28 12.87 380.87 12.87C382.65 12.87 384.43 11.90 384.47 11.59C384.64 10.29 384.69 9.70 384.69 9.66C384.69 9.56 384.65 9.52 384.48 9.51C384.43 9.51 384.37 9.49 384.33 9.49C384.22 9.49 384.16 9.53 384.13 9.70L383.95 11.33C383.94 11.45 382.83 12.24 381.26 12.24C379.13 12.24 377.43 10.29 377.43 7.94C377.43 5.42 378.85 3.54 380.86 3.54C382.70 3.54 384.05 5.01 384.05 5.17C384.05 5.29 383.99 6.40 383.99 6.45C383.99 6.59 384.03 6.64 384.30 6.64C384.50 6.64 384.57 6.62 384.57 6.44C384.57 5.73 384.62 3.92 384.62 3.67C384.62 3.47 384.51 3.44 384.30 3.44C384.08 3.44 384.05 3.50 384.05 3.67L384.05 4.05C384.05 4.16 384.01 4.16 383.88 4.06C383.60 3.86 382.62 3.04 380.95 3.04C378.11 3.04 375.91 4.96 375.91 7.91ZM393.08 12.39C393.08 12.63 393.08 12.68 393.27 12.68C393.60 12.68 394.53 12.64 394.95 12.64C395.37 12.64 396.20 12.68 396.52 12.68C396.69 12.68 396.69 12.61 396.69 12.40C396.69 12.24 396.69 12.18 396.52 12.18L395.60 12.18C395.51 12.18 395.47 9.93 395.47 8.20C395.47 8.01 395.47 8.01 395.60 8.01L400.83 8.01C400.90 8.01 400.92 8.01 400.92 8.18L400.92 9.91C400.92 11.05 400.90 12.18 400.85 12.18L400.08 12.18C399.85 12.18 399.81 12.19 399.81 12.39C399.81 12.63 399.83 12.68 400.02 12.68C400.34 12.68 401.18 12.64 401.60 12.64C402.02 12.64 402.61 12.68 402.93 12.68C403.10 12.68 403.12 12.61 403.12 12.40C403.12 12.24 403.10 12.18 402.93 12.18L402.19 12.18C402.15 12.18 402.14 9.27 402.14 7.04C402.14 5.40 402.14 3.70 402.18 3.70L402.79 3.70C403.02 3.70 403.06 3.68 403.06 3.49C403.06 3.25 403.05 3.19 402.85 3.19C402.71 3.19 402.08 3.23 401.49 3.23C400.82 3.23 400.22 3.19 399.99 3.19C399.80 3.19 399.77 3.22 399.77 3.44C399.77 3.67 399.84 3.70 400.01 3.70L400.81 3.70C400.86 3.70 400.92 4.79 400.92 5.71L400.92 7.42C400.92 7.59 400.92 7.59 400.75 7.59L395.64 7.59C395.47 7.59 395.47 7.59 395.47 7.38C395.47 6.96 395.46 6.23 395.46 5.53C395.46 4.66 395.47 3.70 395.53 3.70L396.30 3.70C396.52 3.70 396.56 3.68 396.56 3.49C396.56 3.25 396.55 3.19 396.35 3.19C396.03 3.19 395.44 3.23 394.84 3.23C394.25 3.23 393.76 3.19 393.54 3.19C393.36 3.19 393.26 3.21 393.26 3.44C393.26 3.68 393.37 3.70 393.54 3.70L394.16 3.70C394.21 3.70 394.23 5.59 394.23 7.18L394.23 8.61C394.23 10.08 394.21 12.18 394.14 12.18L393.33 12.18C393.11 12.18 393.08 12.19 393.08 12.39ZM411.01 12.39C411.01 12.63 411.01 12.68 411.21 12.68C411.38 12.68 411.70 12.64 412.27 12.64C412.89 12.64 413.43 12.68 413.59 12.68C413.76 12.68 413.76 12.61 413.76 12.40C413.76 12.24 413.76 12.18 413.59 12.18L412.51 12.18C412.51 12.18 412.50 12.18 412.50 12.17C412.51 11.87 413.28 9.90 413.63 9.02C413.70 8.83 413.71 8.79 413.92 8.79L416.75 8.79C416.89 8.79 416.89 8.81 416.96 9.03C417.23 9.77 417.94 11.89 417.94 12.17C417.94 12.18 417.93 12.18 417.93 12.18L417.16 12.18C416.93 12.18 416.92 12.19 416.92 12.39C416.92 12.63 416.93 12.68 417.10 12.68C417.42 12.68 418.29 12.64 418.71 12.64C419.13 12.64 419.80 12.68 420.01 12.68C420.15 12.68 420.17 12.61 420.17 12.40C420.17 12.24 420.15 12.18 420.01 12.18L419.52 12.18C419.43 12.18 418.40 9.34 417.84 7.78L416.16 3.07C416.15 3.00 416.08 2.94 416.00 2.94C415.87 2.94 415.77 3.16 415.69 3.35C415.53 3.71 415.30 3.84 415.18 4.13L413.70 7.57C413.52 8.01 411.81 12.18 411.68 12.18L411.26 12.18C411.04 12.18 411.01 12.19 411.01 12.39ZM413.91 8.33C413.91 8.30 413.94 8.23 413.98 8.13L415.35 4.77C415.39 4.66 415.42 4.61 415.45 4.61C415.46 4.61 415.48 4.63 415.52 4.77L416.68 8.18C416.71 8.25 416.72 8.29 416.72 8.32C416.72 8.36 416.70 8.37 416.60 8.37L414.09 8.37C413.91 8.37 413.91 8.34 413.91 8.33ZM427.92 12.39C427.92 12.63 427.94 12.68 428.13 12.68C428.32 12.68 428.69 12.64 429.31 12.64C429.94 12.64 430.50 12.68 430.82 12.68C430.99 12.68 430.99 12.61 430.99 12.40C430.99 12.24 430.99 12.18 430.82 12.18L429.62 12.18C429.58 12.18 429.56 11.54 429.56 10.79C429.56 9.46 429.58 7.48 429.58 5.99C429.58 5.25 429.58 4.84 429.59 4.28C429.59 4.02 429.66 4.14 429.79 4.28L436.67 12.66C436.76 12.75 436.84 12.89 436.95 12.89C437.07 12.89 437.14 12.77 437.14 12.54C437.14 12.39 437.30 6.65 437.32 4.48C437.32 4.06 437.35 3.70 437.37 3.70L438.00 3.70C438.23 3.70 438.28 3.68 438.28 3.49C438.28 3.25 438.28 3.19 438.09 3.19C437.89 3.19 437.46 3.23 436.90 3.23C436.28 3.23 435.48 3.19 435.39 3.19C435.22 3.19 435.22 3.26 435.22 3.47C435.22 3.64 435.22 3.70 435.39 3.70L436.69 3.70C436.70 3.70 436.70 4.33 436.70 4.44C436.70 5.85 436.73 8.33 436.73 9.70L436.73 10.29C436.73 10.57 436.72 10.65 436.49 10.37L430.81 3.39C430.70 3.25 430.67 3.19 430.50 3.19C430.42 3.19 430.04 3.23 429.73 3.23C429.44 3.23 428.36 3.19 428.16 3.19C427.99 3.19 427.97 3.26 427.97 3.47C427.97 3.64 427.99 3.70 428.16 3.70L429.07 3.70C429.07 4.17 429.03 8.53 428.96 10.79C428.93 11.69 428.95 12.18 428.83 12.18L428.19 12.18C427.97 12.18 427.92 12.19 427.92 12.39ZM446.18 12.39C446.18 12.63 446.22 12.68 446.42 12.68C446.74 12.68 447.50 12.64 448.21 12.64C448.87 12.64 449.67 12.68 449.89 12.68C450.06 12.68 450.09 12.61 450.09 12.40C450.09 12.24 450.06 12.18 449.89 12.18L448.92 12.18C448.83 12.18 448.80 9.55 448.80 7.76L448.80 5.87C448.80 5.14 448.83 3.70 448.92 3.70L449.83 3.70C450.06 3.70 450.09 3.68 450.09 3.49C450.09 3.25 450.06 3.19 449.89 3.19C449.57 3.19 448.90 3.23 448.24 3.23C447.43 3.23 446.71 3.19 446.49 3.19C446.31 3.19 446.24 3.21 446.24 3.44C446.24 3.68 446.32 3.70 446.49 3.70L447.41 3.70C447.45 3.70 447.52 4.79 447.52 5.71L447.52 7.08C447.52 8.92 447.51 12.18 447.40 12.18L446.47 12.18C446.25 12.18 446.18 12.19 446.18 12.39ZM458.05 7.91C458.05 11.31 460.42 12.87 463.01 12.87C464.79 12.87 466.56 11.90 466.61 11.59C466.77 10.29 466.83 9.70 466.83 9.66C466.83 9.56 466.79 9.52 466.62 9.51C466.56 9.51 466.51 9.49 466.47 9.49C466.35 9.49 466.30 9.53 466.27 9.70L466.09 11.33C466.07 11.45 464.97 12.24 463.40 12.24C461.27 12.24 459.56 10.29 459.56 7.94C459.56 5.42 460.99 3.54 462.99 3.54C464.84 3.54 466.19 5.01 466.19 5.17C466.19 5.29 466.13 6.40 466.13 6.45C466.13 6.59 466.17 6.64 466.44 6.64C466.63 6.64 466.70 6.62 466.70 6.44C466.70 5.73 466.76 3.92 466.76 3.67C466.76 3.47 466.65 3.44 466.44 3.44C466.21 3.44 466.19 3.50 466.19 3.67L466.19 4.05C466.19 4.16 466.14 4.16 466.02 4.06C465.74 3.86 464.76 3.04 463.09 3.04C460.25 3.04 458.05 4.96 458.05 7.91Z"></path></g></svg>