<svg data-v-423bf9ae="" xmlns="http://www.w3.org/2000/svg" viewBox="0 0 364.6721207195316 60" class="font"><!----><!----><!----><g data-v-423bf9ae="" id="f40cebb8-b6ea-4626-b8df-68099b4e0eea" fill="black" transform="matrix(6.14754083944053,0,0,6.14754083944053,-0.000004604150575460153,-18.442621564647276)"><path d="M6.13 5.81L6.13 5.81Q6.93 4.68 7.58 4.86L7.58 4.86L7.58 4.86Q8.22 5.03 8.71 6.23L8.71 6.23L8.71 6.23Q9.19 7.42 9.11 8.77L9.11 8.77L9.11 8.77Q9.03 10.12 8.00 11.02L8.00 11.02L8.00 11.02Q7.31 10.72 5.73 6.06L5.73 6.06L5.59 5.71L4.89 3.89L4.89 3.89Q4.70 3.26 4.25 4.00L4.25 4.00L2.69 5.86L1.97 3.89L1.97 3.89Q1.73 3.21 1.38 3.92L1.38 3.92L0 6.05L0.21 6.25L0.21 6.25Q0.79 5.35 1.07 6.06L1.07 6.06L3.25 11.89L3.25 11.89Q3.78 13.39 4.83 12.15L4.83 12.15L5.78 11.16L5.60 10.75L5.06 11.30L5.06 11.30Q4.51 11.41 2.82 6.25L2.82 6.25L2.82 6.25Q3.74 5.35 4.02 6.06L4.02 6.06L6.35 12.11L6.35 12.11Q6.93 13.30 7.78 12.15L7.78 12.15L7.78 12.15Q10.23 8.99 10.39 7.58L10.39 7.58L10.39 7.58Q10.54 6.18 9.72 4.81L9.72 4.81L9.72 4.81Q8.91 3.44 8.09 3.53L8.09 3.53L8.09 3.53Q7.27 3.63 5.97 5.51L5.97 5.51L6.13 5.81ZM15.49 12.71L16.78 11.42L16.61 11.22L16.21 11.58L16.21 11.58Q15.66 11.55 15.72 10.46L15.72 10.46L15.72 7.66L15.72 7.66Q15.70 6.64 14.90 6.51L14.90 6.51L13.61 7.78L13.75 7.92L14.14 7.58L14.14 7.58Q14.47 7.68 14.39 8.61L14.39 8.61L14.39 11.17L13.75 11.71L13.75 11.71Q12.68 11.63 12.69 10.19L12.69 10.19L12.70 7.68L12.70 7.68Q12.71 6.69 11.94 6.54L11.94 6.54L10.64 7.79L10.77 7.97L11.17 7.60L11.17 7.60Q11.45 7.64 11.40 8.61L11.40 8.61L11.40 10.66L11.40 10.66Q11.40 11.69 11.97 12.21L11.97 12.21L11.97 12.21Q12.54 12.73 13.20 12.76L13.20 12.76L14.45 11.49L14.45 11.49Q14.59 12.58 15.49 12.71L15.49 12.71ZM18.12 6.51L16.83 7.80L16.99 8.00L17.40 7.64L17.40 7.64Q17.94 7.67 17.89 8.76L17.89 8.76L17.89 11.57L17.89 11.57Q17.91 12.58 18.70 12.71L18.70 12.71L20.00 11.44L19.86 11.31L19.46 11.64L19.46 11.64Q19.19 11.53 19.22 10.62L19.22 10.62L19.22 8.05L19.72 7.63L19.72 7.63Q20.90 7.59 20.91 9.03L20.91 9.03L20.90 11.54L20.90 11.54Q20.90 12.54 21.67 12.69L21.67 12.69L22.97 11.43L22.83 11.25L22.44 11.62L22.44 11.62Q22.20 11.59 22.20 10.81L22.20 10.81L22.21 8.10L22.21 8.10Q22.19 7.18 21.62 6.79L21.62 6.79L21.62 6.79Q21.05 6.41 20.45 6.51L20.45 6.51L19.15 7.73L19.15 7.73Q19.01 6.64 18.12 6.51L18.12 6.51ZM26.41 5.07L26.41 5.07L26.41 6.54L24.99 6.54L24.99 6.54Q23.37 8.91 23.24 9.56L23.24 9.56L23.24 9.56Q23.12 10.20 23.31 10.75L23.31 10.75L23.31 10.75Q23.50 11.31 24.21 12.11L24.21 12.11L24.21 12.11Q24.92 12.91 25.28 12.61L25.28 12.61L26.44 11.57L26.44 11.57Q26.75 12.68 27.45 12.67L27.45 12.67L28.41 11.48L28.75 11.10L28.54 10.87L28.06 11.38L28.06 11.38Q27.69 11.27 27.69 9.72L27.69 9.72L27.69 5.13L27.69 5.13Q27.62 3.61 28.29 3.19L28.29 3.19L28.10 3.07L28.10 3.07Q26.52 3.72 26.41 5.07ZM25.88 7.98L26.44 7.23L26.44 11.16L26.44 11.16Q25.70 11.41 25.05 10.48L25.05 10.48L25.05 10.48Q24.40 9.56 24.34 8.93L24.34 8.93L24.34 8.93Q24.29 8.31 24.62 7.98L24.62 7.98L25.88 7.98ZM31.49 6.54L31.49 6.54Q30.86 6.79 30.22 7.53L30.22 7.53L30.22 7.53Q28.64 9.04 29.09 10.32L29.09 10.32L29.09 10.32Q29.55 11.59 30.31 12.30L30.31 12.30L30.31 12.30Q31.06 13.02 31.64 12.52L31.64 12.52L31.64 12.52Q32.53 11.89 33.50 10.62L33.50 10.62L33.33 10.47L33.33 10.47Q32.75 11.13 32.27 11.42L32.27 11.42L32.27 11.42Q31.62 11.56 30.96 10.55L30.96 10.55L30.96 10.55Q30.29 9.54 30.18 8.65L30.18 8.65L30.18 8.65Q30.08 7.77 30.64 7.63L30.64 7.63L30.64 7.63Q31.19 7.49 31.48 7.86L31.48 7.86L31.48 7.86Q31.76 8.24 31.64 8.61L31.64 8.61L31.64 8.61Q31.52 8.98 31.04 9.33L31.04 9.33L30.54 9.71L30.73 10.00L32.45 8.63L33.01 8.14L33.01 8.14Q33.13 7.21 32.62 6.84L32.62 6.84L32.62 6.84Q32.12 6.47 31.49 6.54L31.49 6.54ZM34.85 6.54L33.51 8.20L33.69 8.33L33.69 8.33Q34.13 7.75 34.39 7.88L34.39 7.88L34.39 7.88Q34.65 8.00 34.61 8.77L34.61 8.77L34.61 11.55L34.61 11.55Q34.75 12.53 35.46 12.68L35.46 12.68L36.80 11.37L36.70 11.23L36.70 11.23Q36.00 11.67 35.99 11.01L35.99 11.01L35.99 8.33L35.99 8.33Q36.04 7.54 36.39 7.51L36.39 7.51L36.39 7.51Q36.75 7.47 37.14 8.21L37.14 8.21L38.29 7.31L38.29 7.31Q37.85 6.63 37.34 6.51L37.34 6.51L37.34 6.51Q36.84 6.39 36.49 6.71L36.49 6.71L36.49 6.71Q36.13 7.03 35.90 7.55L35.90 7.55L35.90 7.55Q35.78 6.67 34.85 6.54L34.85 6.54ZM42.08 3.61L39.04 3.60L37.90 5.11L38.14 5.25L38.51 4.90L39.92 4.89L39.42 5.18L39.42 5.18Q39.53 11.31 39.21 11.60L39.21 11.60L38.51 12.52L38.62 12.68L42.29 12.69L42.29 12.69Q42.90 12.22 43.98 11.00L43.98 11.00L43.98 11.00Q45.21 9.95 45.09 8.96L45.09 8.96L45.09 8.96Q44.97 7.97 44.26 7.57L44.26 7.57L44.26 7.57Q43.55 7.17 42.63 7.25L42.63 7.25L42.63 7.25Q43.86 6.45 43.87 5.14L43.87 5.14L43.87 5.14Q43.87 3.84 42.08 3.61L42.08 3.61ZM40.73 4.79L40.73 4.79Q42.55 4.61 42.74 5.65L42.74 5.65L42.74 5.65Q42.92 6.69 42.18 7.16L42.18 7.16L40.74 7.14L40.73 4.79ZM42.27 8.52L42.27 8.52Q43.12 8.51 43.57 8.96L43.57 8.96L43.57 8.96Q44.02 9.41 43.79 10.22L43.79 10.22L43.79 10.22Q43.57 11.04 43.13 11.22L43.13 11.22L39.79 11.22L40.71 10.58L40.71 8.52L42.27 8.52ZM47.03 3.80L45.79 4.94L45.79 4.94Q46.53 5.07 46.57 6.04L46.57 6.04L47.85 5.02L47.85 5.02Q47.89 4.12 47.03 3.80L47.03 3.80ZM47.13 6.44L45.45 7.82L45.59 8.07L46.00 7.77L46.00 7.77Q46.36 7.77 46.28 8.80L46.28 8.80L46.28 11.58L46.28 11.58Q46.36 12.58 47.13 12.71L47.13 12.71L48.47 11.40L48.32 11.25L47.93 11.59L47.93 11.59Q47.56 11.57 47.61 10.53L47.61 10.53L47.60 7.64L47.60 7.64Q47.58 6.57 47.13 6.44L47.13 6.44ZM50.69 3.00L50.69 3.00Q48.89 4.17 48.98 6.06L48.98 6.06L48.98 11.42L48.98 11.42Q49.04 12.35 49.83 12.71L49.83 12.71L51.35 11.41L51.17 11.22L51.17 11.22Q50.16 12.15 50.39 9.77L50.39 9.77L50.39 9.77Q50.65 9.55 50.99 9.77L50.99 9.77L50.99 9.77Q51.32 9.99 52.01 11.36L52.01 11.36L52.01 11.36Q52.71 12.74 53.20 12.74L53.20 12.74L54.53 11.23L54.33 11.05L54.33 11.05Q53.74 11.89 53.12 10.46L53.12 10.46L53.12 10.46Q52.49 9.03 51.75 8.96L51.75 8.96L51.75 8.96Q52.17 8.73 52.78 8.11L52.78 8.11L52.78 8.11Q53.40 7.49 53.12 6.52L53.12 6.52L51.58 7.51L51.58 7.51Q51.87 8.37 51.42 8.69L51.42 8.69L51.42 8.69Q50.98 9.00 50.30 9.29L50.30 9.29L50.30 5.26L50.30 5.26Q50.31 3.53 50.89 3.12L50.89 3.12L50.69 3.00ZM57.32 6.54L57.32 6.54Q56.68 6.79 56.05 7.53L56.05 7.53L56.05 7.53Q54.46 9.04 54.92 10.32L54.92 10.32L54.92 10.32Q55.38 11.59 56.13 12.30L56.13 12.30L56.13 12.30Q56.89 13.02 57.47 12.52L57.47 12.52L57.47 12.52Q58.36 11.89 59.32 10.62L59.32 10.62L59.15 10.47L59.15 10.47Q58.58 11.13 58.10 11.42L58.10 11.42L58.10 11.42Q57.45 11.56 56.78 10.55L56.78 10.55L56.78 10.55Q56.12 9.54 56.01 8.65L56.01 8.65L56.01 8.65Q55.90 7.77 56.46 7.63L56.46 7.63L56.46 7.63Q57.02 7.49 57.30 7.86L57.30 7.86L57.30 7.86Q57.59 8.24 57.47 8.61L57.47 8.61L57.47 8.61Q57.35 8.98 56.86 9.33L56.86 9.33L56.36 9.71L56.56 10.00L58.28 8.63L58.84 8.14L58.84 8.14Q58.95 7.21 58.45 6.84L58.45 6.84L58.45 6.84Q57.94 6.47 57.32 6.54L57.32 6.54Z"></path></g><!----><!----></svg>